<?xml version="1.0" encoding="utf-8"?>
<!-- Generator: Adobe Illustrator 22.0.1, SVG Export Plug-In . SVG Version: 6.00 Build 0)  -->
<svg version="1.1" id="Слой_1" xmlns="http://www.w3.org/2000/svg" xmlns:xlink="http://www.w3.org/1999/xlink" x="0px" y="0px"
	 viewBox="0 0 20 14" style="enable-background:new 0 0 20 14;" xml:space="preserve">
<style type="text/css">
	.st0{fill:#FF833E;}
</style>
<path id="ayi2a" class="st0" d="M13.4,13.8c-0.3,0.3-0.7,0.3-1,0.1s-0.3-0.7-0.1-1c0,0,0.1-0.1,0.1-0.1l5.1-5.1H0.7
	C0.3,7.7,0,7.4,0,7c0-0.4,0.3-0.7,0.7-0.7h16.9l-5.1-5.1c-0.3-0.3-0.3-0.7,0-1c0.3-0.3,0.7-0.3,1,0c0,0,0,0,0,0l6.3,6.3
	c0.3,0.3,0.3,0.7,0,1c0,0,0,0,0,0L13.4,13.8z"/>
</svg>
