<?xml version="1.0" encoding="utf-8"?>
<!-- Generator: Adobe Illustrator 23.0.0, SVG Export Plug-In . SVG Version: 6.00 Build 0)  -->
<svg version="1.1" id="Слой_1" xmlns="http://www.w3.org/2000/svg" xmlns:xlink="http://www.w3.org/1999/xlink" x="0px" y="0px"
	 viewBox="0 0 22 22" style="enable-background:new 0 0 22 22;" xml:space="preserve">
<style type="text/css">
	.st0{fill:#FFFFFF;}
</style>
<g>
	<path id="ajp5a" class="st0" d="M19.5,17.5c0.2-0.4,0.3-1,0.4-2l0,0c0.1-1.1,0.1-1.5,0.1-4.4c0-2.9,0-3.3-0.1-4.4l0,0
		c-0.1-1.1-0.2-1.6-0.4-2C19.3,4,19,3.6,18.7,3.2c-0.4-0.4-0.8-0.6-1.3-0.8c-0.4-0.2-1-0.3-2-0.4C14.2,2,13.9,2,10.9,2
		C8.1,2,7.7,2,6.6,2l0,0c-1.1,0-1.6,0.2-2,0.4C4,2.6,3.6,2.9,3.2,3.2C2.8,3.6,2.6,4,2.4,4.5c-0.2,0.4-0.3,1-0.4,2C2,7.7,2,8.1,2,11
		c0,2.9,0,3.3,0.1,4.4l0,0c0.1,1.1,0.2,1.6,0.4,2c0.2,0.5,0.4,0.9,0.8,1.3c0.4,0.4,0.8,0.6,1.3,0.8c0.4,0.2,1,0.3,2,0.4
		C7.7,20,8,20,10.9,20c2.9,0,3.3,0,4.4-0.1c1.1,0,1.6-0.2,2-0.4c0.5-0.2,0.9-0.4,1.3-0.8C19,18.4,19.3,18,19.5,17.5L19.5,17.5z
		 M20.1,1.8c0.6,0.6,1,1.2,1.3,1.9c0.3,0.7,0.5,1.5,0.5,2.7c0.1,1.2,0.1,1.5,0.1,4.5s0,3.4-0.1,4.5c-0.1,1.2-0.2,2-0.5,2.7
		c-0.3,0.7-0.7,1.4-1.3,1.9c-0.5,0.6-1.2,1-1.9,1.3c-0.7,0.3-1.5,0.5-2.7,0.5C14.3,22,13.9,22,11,22c-3,0-3.4,0-4.5-0.1
		c-1.2-0.1-2-0.2-2.7-0.5c-0.7-0.3-1.4-0.7-1.9-1.3c-0.6-0.5-1-1.2-1.3-1.9c-0.3-0.7-0.5-1.5-0.5-2.7C0,14.4,0,14,0,11
		s0-3.4,0.1-4.5c0.1-1.2,0.2-2,0.5-2.7c0.3-0.7,0.7-1.4,1.3-1.9c0.5-0.6,1.2-1,1.9-1.3c0.7-0.3,1.5-0.5,2.7-0.5C7.6,0,8,0,11,0
		c3,0,3.3,0,4.5,0.1l0,0c1.2,0.1,2,0.2,2.7,0.5C18.9,0.9,19.5,1.2,20.1,1.8L20.1,1.8z"/>
	<path id="ajp5b" class="st0" d="M7.3,11c0,2,1.6,3.7,3.7,3.7c2,0,3.7-1.7,3.7-3.7c0-2-1.6-3.7-3.6-3.7c0,0,0,0,0,0
		C8.9,7.3,7.3,9,7.3,11z M5.3,11c0-3.1,2.5-5.7,5.6-5.7c3.1,0,5.6,2.5,5.6,5.7c0,3.1-2.5,5.7-5.6,5.7C7.8,16.6,5.3,14.1,5.3,11z"/>
	<path id="ajp5c" class="st0" d="M16.8,6.4c0.7,0,1.3-0.6,1.3-1.3c0-0.7-0.6-1.3-1.3-1.3c-0.7,0-1.3,0.6-1.3,1.3
		C15.5,5.9,16.1,6.4,16.8,6.4z"/>
</g>
</svg>
