<svg xmlns="http://www.w3.org/2000/svg" xmlns:xlink="http://www.w3.org/1999/xlink" width="54" height="38" viewBox="0 0 54 38">
    <defs>
        <path id="a" d="M587.408 5566.078c0 3-1.009 5.404-3.026 7.214-2.018 1.81-4.527 2.715-7.527 2.715-3.829 0-6.83-1.215-9.002-3.646-2.173-2.43-3.26-5.662-3.26-9.695 0-4.137.648-7.653 1.94-10.55 1.294-2.895 2.846-5.3 4.657-7.213 1.81-1.913 3.699-3.413 5.665-4.498 1.965-1.086 3.673-1.888 5.121-2.405l4.966 8.377c-2.069.827-3.828 2.146-5.276 3.956-1.449 1.81-2.277 3.749-2.484 5.817 2.07 0 3.958.905 5.665 2.715 1.707 1.81 2.561 4.214 2.561 7.213zm-30.604 0c0 3-1.008 5.404-3.025 7.214-2.017 1.81-4.525 2.715-7.524 2.715-3.826 0-6.825-1.215-8.997-3.646-2.172-2.43-3.258-5.662-3.258-9.695 0-4.137.646-7.653 1.94-10.55 1.292-2.895 2.843-5.3 4.653-7.213 1.81-1.913 3.697-3.413 5.662-4.498 1.965-1.086 3.672-1.888 5.12-2.405l4.964 8.377c-2.069.827-3.827 2.146-5.275 3.956-1.448 1.81-2.275 3.749-2.482 5.817 2.069 0 3.956.905 5.662 2.715 1.707 1.81 2.56 4.214 2.56 7.213z"/>
    </defs>
    <use fill="#ff833e" xlink:href="#a" transform="translate(-534 -5538)"/>
</svg>
