<?xml version="1.0" encoding="UTF-8"?><!DOCTYPE svg PUBLIC "-//W3C//DTD SVG 1.1//EN" "http://www.w3.org/Graphics/SVG/1.1/DTD/svg11.dtd"><svg xmlns="http://www.w3.org/2000/svg"><symbol id="icon-facebook" viewBox="0 0 10 19">
    <title>
        facebook
    </title>
    <path d="M9.766.157v2.946H8.014c-.64 0-1.071.134-1.295.402-.223.268-.335.67-.335 1.205v2.11h3.27l-.435 3.303H6.384v8.471H2.97v-8.47H.123V6.82H2.97V4.387c0-1.384.387-2.457 1.161-3.22C4.904.404 5.934.023 7.222.023c1.093 0 1.941.045 2.544.134z" fill-rule="evenodd"/>
</symbol><symbol id="icon-insta" viewBox="0 0 22 22">
    <style>
        .st0{fill:#fff}
    </style>
    <path id="ajp5a" class="st0" d="M19.5 17.5c.2-.4.3-1 .4-2 .1-1.1.1-1.5.1-4.4 0-2.9 0-3.3-.1-4.4-.1-1.1-.2-1.6-.4-2-.2-.7-.5-1.1-.8-1.5-.4-.4-.8-.6-1.3-.8-.4-.2-1-.3-2-.4H6.6c-1.1 0-1.6.2-2 .4-.6.2-1 .5-1.4.8-.4.4-.6.8-.8 1.3-.2.4-.3 1-.4 2V11c0 2.9 0 3.3.1 4.4.1 1.1.2 1.6.4 2 .2.5.4.9.8 1.3s.8.6 1.3.8c.4.2 1 .3 2 .4 1.1.1 1.4.1 4.3.1s3.3 0 4.4-.1c1.1 0 1.6-.2 2-.4.5-.2.9-.4 1.3-.8.4-.3.7-.7.9-1.2zm.6-15.7c.6.6 1 1.2 1.3 1.9.3.7.5 1.5.5 2.7.1 1.2.1 1.5.1 4.5s0 3.4-.1 4.5c-.1 1.2-.2 2-.5 2.7-.3.7-.7 1.4-1.3 1.9-.5.6-1.2 1-1.9 1.3-.7.3-1.5.5-2.7.5-1.2.2-1.6.2-4.5.2-3 0-3.4 0-4.5-.1-1.2-.1-2-.2-2.7-.5-.7-.3-1.4-.7-1.9-1.3-.6-.5-1-1.2-1.3-1.9-.3-.7-.5-1.5-.5-2.7C0 14.4 0 14 0 11s0-3.4.1-4.5c.1-1.2.2-2 .5-2.7.3-.7.7-1.4 1.3-1.9.5-.6 1.2-1 1.9-1.3C4.5.3 5.3.1 6.5.1 7.6 0 8 0 11 0s3.3 0 4.5.1c1.2.1 2 .2 2.7.5.7.3 1.3.6 1.9 1.2z"/>
    <path id="ajp5b" class="st0" d="M7.3 11c0 2 1.6 3.7 3.7 3.7 2 0 3.7-1.7 3.7-3.7s-1.6-3.7-3.6-3.7C8.9 7.3 7.3 9 7.3 11zm-2 0c0-3.1 2.5-5.7 5.6-5.7 3.1 0 5.6 2.5 5.6 5.7 0 3.1-2.5 5.7-5.6 5.7-3.1-.1-5.6-2.6-5.6-5.7z"/>
    <path id="ajp5c" class="st0" d="M16.8 6.4c.7 0 1.3-.6 1.3-1.3 0-.7-.6-1.3-1.3-1.3-.7 0-1.3.6-1.3 1.3 0 .8.6 1.3 1.3 1.3z"/>
</symbol></svg>