<?xml version="1.0" encoding="UTF-8"?><!DOCTYPE svg PUBLIC "-//W3C//DTD SVG 1.1//EN" "http://www.w3.org/Graphics/SVG/1.1/DTD/svg11.dtd"><svg xmlns="http://www.w3.org/2000/svg" xmlns:xlink="http://www.w3.org/1999/xlink"><defs>
        <path id="a" d="M494.525 2234.255a.71.71 0 1 1 1 1l-5.102 5.108h16.864a.712.712 0 0 1 0 1.422h-16.864l5.11 5.102c.267.28.267.72 0 1a.706.706 0 0 1-1 0l-6.32-6.32a.694.694 0 0 1 0-1z"/>
    </defs><symbol id="icon-arrow-left" viewBox="0 0 20 14">
    
    <use xlink:href="#a" transform="translate(-488 -2234)"/>
</symbol><symbol id="icon-arrow-right" viewBox="0 0 20 14">
    <style>
        .st0{fill:#ff833e}
    </style>
    <path id="ayi2a" class="st0" d="M13.4 13.8c-.3.3-.7.3-1 .1s-.3-.7-.1-1l.1-.1 5.1-5.1H.7C.3 7.7 0 7.4 0 7c0-.4.3-.7.7-.7h16.9l-5.1-5.1c-.3-.3-.3-.7 0-1 .3-.3.7-.3 1 0l6.3 6.3c.3.3.3.7 0 1l-6.4 6.3z"/>
</symbol><symbol id="icon-insta" viewBox="0 0 22 22">
    <style>
        .st0{fill:#fff}
    </style>
    <path id="ajp5a" class="st0" d="M19.5 17.5c.2-.4.3-1 .4-2 .1-1.1.1-1.5.1-4.4 0-2.9 0-3.3-.1-4.4-.1-1.1-.2-1.6-.4-2-.2-.7-.5-1.1-.8-1.5-.4-.4-.8-.6-1.3-.8-.4-.2-1-.3-2-.4H6.6c-1.1 0-1.6.2-2 .4-.6.2-1 .5-1.4.8-.4.4-.6.8-.8 1.3-.2.4-.3 1-.4 2V11c0 2.9 0 3.3.1 4.4.1 1.1.2 1.6.4 2 .2.5.4.9.8 1.3s.8.6 1.3.8c.4.2 1 .3 2 .4 1.1.1 1.4.1 4.3.1s3.3 0 4.4-.1c1.1 0 1.6-.2 2-.4.5-.2.9-.4 1.3-.8.4-.3.7-.7.9-1.2zm.6-15.7c.6.6 1 1.2 1.3 1.9.3.7.5 1.5.5 2.7.1 1.2.1 1.5.1 4.5s0 3.4-.1 4.5c-.1 1.2-.2 2-.5 2.7-.3.7-.7 1.4-1.3 1.9-.5.6-1.2 1-1.9 1.3-.7.3-1.5.5-2.7.5-1.2.2-1.6.2-4.5.2-3 0-3.4 0-4.5-.1-1.2-.1-2-.2-2.7-.5-.7-.3-1.4-.7-1.9-1.3-.6-.5-1-1.2-1.3-1.9-.3-.7-.5-1.5-.5-2.7C0 14.4 0 14 0 11s0-3.4.1-4.5c.1-1.2.2-2 .5-2.7.3-.7.7-1.4 1.3-1.9.5-.6 1.2-1 1.9-1.3C4.5.3 5.3.1 6.5.1 7.6 0 8 0 11 0s3.3 0 4.5.1c1.2.1 2 .2 2.7.5.7.3 1.3.6 1.9 1.2z"/>
    <path id="ajp5b" class="st0" d="M7.3 11c0 2 1.6 3.7 3.7 3.7 2 0 3.7-1.7 3.7-3.7s-1.6-3.7-3.6-3.7C8.9 7.3 7.3 9 7.3 11zm-2 0c0-3.1 2.5-5.7 5.6-5.7 3.1 0 5.6 2.5 5.6 5.7 0 3.1-2.5 5.7-5.6 5.7-3.1-.1-5.6-2.6-5.6-5.7z"/>
    <path id="ajp5c" class="st0" d="M16.8 6.4c.7 0 1.3-.6 1.3-1.3 0-.7-.6-1.3-1.3-1.3-.7 0-1.3.6-1.3 1.3 0 .8.6 1.3 1.3 1.3z"/>
</symbol><symbol id="icon-play" viewBox="0 0 232.153 232.153">
    <path d="M203.791 99.628L49.307 2.294C44.74-.425 39.069.028 34.786.028 17.654.028 17.73 13.255 17.73 16.606v198.94c0 2.833-.075 16.579 17.056 16.579 4.283 0 9.955.451 14.521-2.267l154.483-97.333c12.68-7.545 10.489-16.449 10.489-16.449s2.192-8.904-10.488-16.448z" fill-rule="evenodd" clip-rule="evenodd"/>
</symbol></svg>